<svg xmlns="http://www.w3.org/2000/svg" xmlns:xlink="http://www.w3.org/1999/xlink" viewBox="0 0 182.85 189.23"><defs><radialGradient id="Degradado_sin_nombre_2" cx="342.68" cy="198" fx="305.7992935503327" r="55.75" gradientTransform="translate(-326.61 178.61) scale(1.25 0.04)" gradientUnits="userSpaceOnUse"><stop offset="0" stop-color="#010101"/><stop offset="1" stop-color="#fff" stop-opacity="0"/></radialGradient><linearGradient id="Degradado_sin_nombre_13" x1="73.38" y1="77.86" x2="90.42" y2="77.86" gradientUnits="userSpaceOnUse"><stop offset="0" stop-color="#fcea10"/><stop offset="1" stop-color="#f9b233"/></linearGradient><linearGradient id="Degradado_sin_nombre_13-2" x1="57.02" y1="83.51" x2="74.53" y2="83.51" xlink:href="#Degradado_sin_nombre_13"/><linearGradient id="Degradado_sin_nombre_13-3" x1="21.37" y1="26.11" x2="118.22" y2="26.11" xlink:href="#Degradado_sin_nombre_13"/><linearGradient id="Degradado_sin_nombre_13-4" x1="45.02" y1="64.05" x2="66.19" y2="64.05" xlink:href="#Degradado_sin_nombre_13"/><linearGradient id="Degradado_sin_nombre_13-5" x1="87.14" y1="52.83" x2="105.84" y2="52.83" xlink:href="#Degradado_sin_nombre_13"/><linearGradient id="Degradado_sin_nombre_13-6" x1="110.67" y1="65.65" x2="122.19" y2="65.65" xlink:href="#Degradado_sin_nombre_13"/><linearGradient id="Degradado_sin_nombre_13-7" x1="76.74" y1="128.59" x2="84.4" y2="128.59" xlink:href="#Degradado_sin_nombre_13"/><linearGradient id="Degradado_sin_nombre_13-8" x1="109.15" y1="47.39" x2="122.93" y2="47.39" xlink:href="#Degradado_sin_nombre_13"/><linearGradient id="Degradado_sin_nombre_13-9" x1="26.03" y1="107.59" x2="171.89" y2="107.59" xlink:href="#Degradado_sin_nombre_13"/><linearGradient id="Degradado_sin_nombre_13-10" x1="117.5" y1="118.23" x2="125.15" y2="118.23" xlink:href="#Degradado_sin_nombre_13"/><linearGradient id="Degradado_sin_nombre_13-11" x1="64.78" y1="58.69" x2="85.95" y2="58.69" xlink:href="#Degradado_sin_nombre_13"/><linearGradient id="Degradado_sin_nombre_13-12" x1="92.12" y1="71.56" x2="107.32" y2="71.56" xlink:href="#Degradado_sin_nombre_13"/><linearGradient id="Degradado_sin_nombre_13-13" x1="0" y1="42.3" x2="26.03" y2="42.3" xlink:href="#Degradado_sin_nombre_13"/><linearGradient id="Degradado_sin_nombre_7" x1="28.12" y1="150.97" x2="120.86" y2="23.32" xlink:href="#Degradado_sin_nombre_13"/><linearGradient id="Degradado_sin_nombre_7-2" x1="38.92" y1="158.82" x2="131.67" y2="31.17" xlink:href="#Degradado_sin_nombre_13"/><linearGradient id="Degradado_sin_nombre_7-3" x1="29.75" y1="152.16" x2="122.5" y2="24.51" xlink:href="#Degradado_sin_nombre_13"/><linearGradient id="Degradado_sin_nombre_7-4" x1="35.52" y1="156.35" x2="128.26" y2="28.69" xlink:href="#Degradado_sin_nombre_13"/><linearGradient id="Degradado_sin_nombre_7-5" x1="20.68" y1="145.57" x2="113.42" y2="17.91" xlink:href="#Degradado_sin_nombre_13"/><linearGradient id="Degradado_sin_nombre_17" x1="7.48" y1="135.98" x2="100.23" y2="8.32" gradientUnits="userSpaceOnUse"><stop offset="0" stop-color="#e94e1b"/><stop offset="1" stop-color="#f9b233"/></linearGradient><linearGradient id="Degradado_sin_nombre_7-6" x1="-12.44" y1="121.5" x2="80.3" y2="-6.15" xlink:href="#Degradado_sin_nombre_13"/><linearGradient id="Degradado_sin_nombre_13-14" x1="48.06" y1="64.05" x2="65.33" y2="64.05" xlink:href="#Degradado_sin_nombre_13"/><linearGradient id="Degradado_sin_nombre_17-2" x1="53.56" y1="169.45" x2="146.3" y2="41.8" xlink:href="#Degradado_sin_nombre_17"/><linearGradient id="Degradado_sin_nombre_17-3" x1="51.22" y1="167.76" x2="143.96" y2="40.1" xlink:href="#Degradado_sin_nombre_17"/><linearGradient id="Degradado_sin_nombre_7-7" x1="28.78" y1="151.45" x2="121.52" y2="23.8" xlink:href="#Degradado_sin_nombre_13"/><linearGradient id="Degradado_sin_nombre_17-4" x1="49.65" y1="166.62" x2="142.4" y2="38.96" xlink:href="#Degradado_sin_nombre_17"/><linearGradient id="Degradado_sin_nombre_7-8" x1="44.81" y1="163.1" x2="137.55" y2="35.45" xlink:href="#Degradado_sin_nombre_13"/><linearGradient id="Degradado_sin_nombre_17-5" x1="48.22" y1="165.58" x2="140.97" y2="37.93" xlink:href="#Degradado_sin_nombre_17"/><linearGradient id="Degradado_sin_nombre_17-6" x1="46.7" y1="164.48" x2="139.45" y2="36.82" xlink:href="#Degradado_sin_nombre_17"/><linearGradient id="Degradado_sin_nombre_7-9" x1="37.57" y1="157.84" x2="130.32" y2="30.19" xlink:href="#Degradado_sin_nombre_13"/><linearGradient id="Degradado_sin_nombre_13-16" x1="45.02" y1="107.81" x2="171.89" y2="107.81" xlink:href="#Degradado_sin_nombre_13"/><linearGradient id="Degradado_sin_nombre_13-17" x1="117.5" y1="118.23" x2="125.15" y2="118.23" xlink:href="#Degradado_sin_nombre_13"/><linearGradient id="Degradado_sin_nombre_17-7" x1="-30" y1="108.75" x2="62.75" y2="-18.91" xlink:href="#Degradado_sin_nombre_17"/><linearGradient id="Degradado_sin_nombre_17-8" x1="-21.06" y1="115.24" x2="71.68" y2="-12.41" xlink:href="#Degradado_sin_nombre_17"/><linearGradient id="Degradado_sin_nombre_25" x1="99.94" y1="-12.97" x2="60.04" y2="202.49" gradientTransform="translate(-46.05 20.93) rotate(-11.57)" gradientUnits="userSpaceOnUse"><stop offset="0" stop-color="#fff"/><stop offset="1" stop-color="#fff" stop-opacity="0"/></linearGradient><linearGradient id="Degradado_sin_nombre_25-2" x1="98.94" y1="-13.15" x2="59.04" y2="202.3" xlink:href="#Degradado_sin_nombre_25"/><linearGradient id="Degradado_sin_nombre_25-3" x1="97.36" y1="-13.44" x2="57.46" y2="202.01" xlink:href="#Degradado_sin_nombre_25"/><linearGradient id="Degradado_sin_nombre_25-4" x1="74.47" y1="-17.68" x2="34.57" y2="197.77" xlink:href="#Degradado_sin_nombre_25"/><linearGradient id="Degradado_sin_nombre_25-5" x1="81.35" y1="-16.41" x2="41.45" y2="199.05" xlink:href="#Degradado_sin_nombre_25"/><linearGradient id="Degradado_sin_nombre_25-6" x1="87.4" y1="-15.29" x2="47.5" y2="200.17" xlink:href="#Degradado_sin_nombre_25"/><linearGradient id="Degradado_sin_nombre_25-7" x1="98.02" y1="-13.32" x2="58.12" y2="202.13" xlink:href="#Degradado_sin_nombre_25"/><linearGradient id="Degradado_sin_nombre_25-8" x1="92.17" y1="-14.41" x2="52.27" y2="201.05" xlink:href="#Degradado_sin_nombre_25"/><linearGradient id="Degradado_sin_nombre_25-9" x1="179.95" y1="1.85" x2="140.05" y2="217.3" xlink:href="#Degradado_sin_nombre_25"/><linearGradient id="Degradado_sin_nombre_25-10" x1="102.46" y1="-12.5" x2="62.56" y2="202.96" xlink:href="#Degradado_sin_nombre_25"/><linearGradient id="Degradado_sin_nombre_25-11" x1="144.79" y1="-4.66" x2="104.89" y2="210.8" xlink:href="#Degradado_sin_nombre_25"/><linearGradient id="Degradado_sin_nombre_17-9" x1="-9.15" y1="123.9" x2="83.6" y2="-3.76" xlink:href="#Degradado_sin_nombre_17"/><linearGradient id="Degradado_sin_nombre_25-12" x1="93.87" y1="-14.09" x2="53.97" y2="201.36" xlink:href="#Degradado_sin_nombre_25"/><linearGradient id="Degradado_sin_nombre_17-10" x1="15.47" y1="141.78" x2="108.22" y2="14.13" xlink:href="#Degradado_sin_nombre_17"/><linearGradient id="Degradado_sin_nombre_7-10" x1="124.86" y1="-8.35" x2="84.96" y2="207.1" gradientTransform="translate(-46.05 20.93) rotate(-11.57)" xlink:href="#Degradado_sin_nombre_13"/><linearGradient id="Degradado_sin_nombre_17-11" x1="12.94" y1="139.95" x2="105.69" y2="12.29" xlink:href="#Degradado_sin_nombre_17"/><linearGradient id="Degradado_sin_nombre_25-13" x1="114.6" y1="-10.25" x2="74.7" y2="205.2" xlink:href="#Degradado_sin_nombre_25"/><linearGradient id="Degradado_sin_nombre_7-11" x1="34.71" y1="155.76" x2="127.45" y2="28.11" xlink:href="#Degradado_sin_nombre_13"/><linearGradient id="Degradado_sin_nombre_17-12" x1="19.53" y1="144.73" x2="112.27" y2="17.08" xlink:href="#Degradado_sin_nombre_17"/><linearGradient id="Degradado_sin_nombre_7-12" x1="116.33" y1="-9.93" x2="76.43" y2="205.52" gradientTransform="translate(-46.05 20.93) rotate(-11.57)" xlink:href="#Degradado_sin_nombre_13"/><linearGradient id="Degradado_sin_nombre_17-13" x1="19.7" y1="144.84" x2="112.45" y2="17.19" xlink:href="#Degradado_sin_nombre_17"/><linearGradient id="Degradado_sin_nombre_17-14" x1="35.51" y1="156.34" x2="128.26" y2="28.69" xlink:href="#Degradado_sin_nombre_17"/><linearGradient id="Degradado_sin_nombre_25-14" x1="164.58" y1="-1" x2="124.68" y2="214.46" xlink:href="#Degradado_sin_nombre_25"/><linearGradient id="Degradado_sin_nombre_17-15" x1="42.69" y1="161.56" x2="135.43" y2="33.9" xlink:href="#Degradado_sin_nombre_17"/><linearGradient id="Degradado_sin_nombre_25-15" x1="121.72" y1="-8.93" x2="81.82" y2="206.52" xlink:href="#Degradado_sin_nombre_25"/><linearGradient id="Degradado_sin_nombre_17-16" x1="24.66" y1="148.46" x2="117.4" y2="20.8" xlink:href="#Degradado_sin_nombre_17"/><linearGradient id="Degradado_sin_nombre_13-18" x1="87.14" y1="51.45" x2="105.49" y2="51.45" xlink:href="#Degradado_sin_nombre_13"/><linearGradient id="Degradado_sin_nombre_17-17" x1="-5.2" y1="126.77" x2="87.55" y2="-0.89" xlink:href="#Degradado_sin_nombre_17"/><linearGradient id="Degradado_sin_nombre_13-19" x1="21.37" y1="23.01" x2="118.22" y2="23.01" xlink:href="#Degradado_sin_nombre_13"/><linearGradient id="Degradado_sin_nombre_17-18" x1="36.48" y1="157.05" x2="129.23" y2="29.39" xlink:href="#Degradado_sin_nombre_17"/><linearGradient id="Degradado_sin_nombre_7-13" x1="148.13" y1="-4.04" x2="108.23" y2="211.41" gradientTransform="translate(-46.05 20.93) rotate(-11.57)" xlink:href="#Degradado_sin_nombre_13"/><linearGradient id="Degradado_sin_nombre_17-19" x1="26.94" y1="150.11" x2="119.68" y2="22.46" xlink:href="#Degradado_sin_nombre_17"/><linearGradient id="Degradado_sin_nombre_7-14" x1="73.38" y1="75.04" x2="89.57" y2="75.04" xlink:href="#Degradado_sin_nombre_13"/><linearGradient id="Degradado_sin_nombre_17-20" x1="42.65" y1="161.53" x2="135.39" y2="33.87" xlink:href="#Degradado_sin_nombre_17"/><linearGradient id="Degradado_sin_nombre_25-16" x1="179.9" y1="1.84" x2="140" y2="217.3" xlink:href="#Degradado_sin_nombre_25"/><linearGradient id="Degradado_sin_nombre_17-21" x1="-1.86" y1="129.19" x2="90.89" y2="1.54" xlink:href="#Degradado_sin_nombre_17"/><linearGradient id="Degradado_sin_nombre_25-17" x1="96.16" y1="-13.67" x2="56.26" y2="201.79" xlink:href="#Degradado_sin_nombre_25"/><linearGradient id="Degradado_sin_nombre_13-20" x1="0" y1="42.3" x2="26.03" y2="42.3" xlink:href="#Degradado_sin_nombre_13"/></defs><title>logo svg</title><g style="isolation:isolate"><g id="Capa_2" data-name="Capa 2"><g id="Capa_1-2" data-name="Capa 1"><polygon points="23.47 34.74 26.24 46.8 60.65 137.03 75.16 147.27 109.15 135.28 122.67 130.62 134.18 118.66 144.33 85.74 133.63 40.03 116.04 31.92 58.29 27.6 35.78 33.24 23.47 34.74" style="fill:#706f6f"/><ellipse cx="102.14" cy="186.89" rx="80.71" ry="2.34" style="opacity:0.4;mix-blend-mode:multiply;fill:url(#Degradado_sin_nombre_2)"/><path d="M78.28,85.74c3.86-1.65,7.51-3.16,11.1-4.81a2.12,2.12,0,0,0,1-1.74c-.24-1.19-.53-2.38-.83-3.58s-.67-2.66-1-4c-.14-.52-.27-1-.41-1.58l-5,1.53-9.73,3c.61,1.4,1.2,2.75,1.77,4.08Z" style="fill:url(#Degradado_sin_nombre_13)"/><path d="M65.14,91.34c3.12-1.17,6.15-2.6,9.39-4C73.35,84.64,72.2,82,71,79.4l-1.66-3.76-4.84,1.58L57,79.66c2.14,3.8,4,7.23,6,10.55C63.4,90.82,64.63,91.54,65.14,91.34Z" style="fill:url(#Degradado_sin_nombre_13-2)"/><path d="M35,43.41c1.33,2.13,2.75,4.22,3.86,6.46a5.77,5.77,0,0,0,.35.61c1,1.68,2.24,2.07,4.51,1.48l5.39-1.38L66.79,46q25.71-6.59,51.43-13.1h0L72.84,12,51.06,2A21.19,21.19,0,0,0,43.73.05L42.65,0a20.06,20.06,0,0,0-3.21.2,20.6,20.6,0,0,0-5.38,1.52c-.64.28-1.26.58-1.87.92A21.72,21.72,0,0,0,28.77,5c-.53.45-1,.92-1.52,1.42q-.48.5-.93,1a20.62,20.62,0,0,0-4.51,17.7l1.66,8.09.6,2.93v.06l1,.1C29.17,36.91,32.49,39.38,35,43.41Z" style="fill:url(#Degradado_sin_nombre_13-3)"/><path d="M48.49,59.14,45,60q1.54,2.61,3,5.11c1.29,2.17,2.57,4.29,3.88,6.39a1.91,1.91,0,0,0,1.7.54c3.75-1.08,7.48-2.26,11.52-3.51l1-.32c-.29-.67-.58-1.31-.86-2L60.79,56Z" style="fill:url(#Degradado_sin_nombre_13-4)"/><path d="M105.84,55.1c-.09-1.6-.21-3.19-.35-4.79-.15-1.82-.33-3.65-.49-5.52L87.14,49.34c.75,2.95,1.48,5.79,2.24,8.77.23.91.46,1.82.7,2.75,5-1.51,9.75-2.94,14.5-4.46C105.11,56.24,105.87,55.52,105.84,55.1Z" style="fill:url(#Degradado_sin_nombre_13-5)"/><path d="M111.36,71.84c3.44-1.53,6.51-2.84,9.52-4.27a2,2,0,0,0,.92-1.41c.2-2.11.26-4.23.39-6.7L110.67,63C110.89,65.82,111.1,68.6,111.36,71.84Z" style="fill:url(#Degradado_sin_nombre_13-6)"/><path d="M79.67,124.9a3.8,3.8,0,1,0,1.8,7.38,3.8,3.8,0,1,0-1.8-7.38Z" style="fill:url(#Degradado_sin_nombre_13-7)"/><path d="M122.67,46.8c.1-2.19.17-4.41.26-6.77-4.5,1.15-8.53,2.11-12.51,3.25A2.28,2.28,0,0,0,109.15,45c.06,1.47.18,3,.32,4.46.15,1.67.32,3.39.49,5.25,4.15-1.28,7.86-2.39,11.54-3.58.41-.13,1-.62,1-1C122.57,49.08,122.62,47.94,122.67,46.8Z" style="fill:url(#Degradado_sin_nombre_13-8)"/><path d="M159.72,52.06l-1.06-.49-20.49-9.44-6.1-2.82h0l-.94-.43h0l-.06,1.48c-.26,6.83-.56,13.65-.83,20.47-.09,2.51-.26,5-.11,7.53.2,3.2-1.29,4.94-4.11,6.1-6.56,2.68-13,5.5-19.58,8.26l-33.12,14-9,3.78a10.73,10.73,0,0,0-1.56.85,8.09,8.09,0,0,0-.68.46c-1.69,1.31-2.77,3-2,5.18s2.51,2.82,4.55,2.75a20.13,20.13,0,0,0,4.34-.69q29.5-7.47,59-15c2-.51,3.81-.71,5.22,1.07,2,2.53.76,5.64-2.66,6.53-8.39,2.18-16.8,4.29-25.21,6.43l-6.05,1.54c-10.16,2.59-20.32,5.21-30.5,7.75-5.54,1.38-10.56.51-14.37-4.1s-3.65-10.9.44-15.75c1.3-1.53,1.45-2.6.44-4.28Q51.18,86.3,47,79.34L30.84,52.2l-2-3.36A9.39,9.39,0,0,0,26,45.76l1.46,7.12L49.32,159.57c.13.66.31,1.3.49,1.93,0,.16.11.32.16.49.18.54.37,1.06.58,1.57,0,.08.06.16.1.24.25.59.54,1.17.84,1.72l.17.29c.28.5.58,1,.9,1.45l.12.17a20.72,20.72,0,0,0,2.54,3l.06.06c.48.46,1,.89,1.5,1.3.22.18.46.33.68.49s.59.44.9.64h0a20.85,20.85,0,0,0,26.52-3l34.93-36.29,3.41-3.54a12.33,12.33,0,0,1-13.55-8.93,12.15,12.15,0,0,1,8.69-14.48,11.88,11.88,0,0,1,14.49,8.56,12.06,12.06,0,0,1,.3,4.53l7.08-7.36h0L166,85.56A20.92,20.92,0,0,0,159.72,52.06ZM83.56,140.19A12,12,0,0,1,74,118.63h0a11.73,11.73,0,0,1,3.5-1.58,12,12,0,1,1,6.08,23.15Z" style="fill:url(#Degradado_sin_nombre_13-9)"/><path d="M120.32,114.57a3.86,3.86,0,0,0-2.69,4.66,3.83,3.83,0,1,0,2.69-4.66Z" style="fill:url(#Degradado_sin_nombre_13-10)"/><path d="M70.11,67,86,62.14c-1-4.11-2-7.91-3-11.78L66.17,54.63,64.78,55c.39.9.78,1.78,1.17,2.65C67.34,60.78,68.71,63.85,70.11,67Z" style="fill:url(#Degradado_sin_nombre_13-11)"/><path d="M93.66,74.77c.35,1.35.69,2.7,1,4.09l12.62-5.47c-.12-1.51-.22-2.94-.33-4.37l-.09-1.21c-.08-1.16-.17-2.33-.26-3.56L92.12,68.71c.17.69.34,1.35.51,2C93,72.09,93.32,73.43,93.66,74.77Z" style="fill:url(#Degradado_sin_nombre_13-12)"/><path d="M24.08,36.23a15.25,15.25,0,0,0-3.82.24C14.81,37.46,9.45,39,4.07,40.3,1,41.07-.45,43,.12,45.39s2.85,3.53,6,2.73C10.45,47,14.7,45.82,19,44.89c2.9-.62,5.18-.34,7,.87l-1.85-9Z" style="fill:url(#Degradado_sin_nombre_13-13)"/><path d="M88.54,71.57c-.14-.52-.27-1-.41-1.58l-5,1.53c0,.39-.1.79-.13,1.19Z" style="fill:url(#Degradado_sin_nombre_7)"/><path d="M102.28,73l-8.62,1.76c.35,1.35.69,2.7,1,4.09l12.62-5.47c-.12-1.51-.22-2.94-.33-4.37-.91,1.24-1.82,2.47-2.72,3.73A13.74,13.74,0,0,0,102.28,73Z" style="fill:url(#Degradado_sin_nombre_7-2)"/><path d="M89.38,80.93a2.12,2.12,0,0,0,1-1.74c-.24-1.19-.53-2.38-.83-3.58l-14.42,3,3.13,7.18C82.14,84.09,85.79,82.58,89.38,80.93Z" style="fill:url(#Degradado_sin_nombre_7-3)"/><path d="M106.64,64.25,92.12,68.71c.17.69.34,1.35.51,2l14.27-2.92C106.82,66.65,106.73,65.48,106.64,64.25Z" style="fill:url(#Degradado_sin_nombre_7-4)"/><path d="M63,90.21c.38.61,1.61,1.33,2.12,1.13,3.12-1.17,6.15-2.6,9.39-4C73.35,84.64,72.2,82,71,79.4l-6.12,1.25-.64.15.26-3.58L57,79.66C59.16,83.46,61,86.89,63,90.21Z" style="fill:url(#Degradado_sin_nombre_7-5)"/><path d="M66,57.63l.22-3L64.78,55C65.17,55.88,65.56,56.76,66,57.63Z" style="fill:url(#Degradado_sin_nombre_17)"/><path d="M49.11,50.58,66.79,46l.08-1.21h0c0-.21,0-.42,0-.63A13.61,13.61,0,0,0,50.56,30.38h0l-.11,0-20,4.09a23.48,23.48,0,0,0-5.43,1.84c4.12.58,7.44,3.05,10,7.08,1.33,2.13,2.75,4.22,3.86,6.46a5.77,5.77,0,0,0,.35.61l10-2Z" style="fill:url(#Degradado_sin_nombre_7-6)"/><path d="M48.49,59.14l-.43,6c1.29,2.17,2.57,4.29,3.88,6.39a1.91,1.91,0,0,0,1.7.54c3.75-1.08,7.48-2.26,11.52-3.51l.17-2.28L60.79,56Z" style="fill:url(#Degradado_sin_nombre_13-14)"/><path d="M55.22,170.4a20.72,20.72,0,0,1-2.54-3A20.72,20.72,0,0,0,55.22,170.4Z" style="fill:url(#Degradado_sin_nombre_17-2)"/><path d="M52.56,167.26c-.32-.47-.62-.95-.9-1.45C51.94,166.31,52.24,166.79,52.56,167.26Z" style="fill:url(#Degradado_sin_nombre_17-3)"/><path d="M104.58,56.4c.53-.16,1.29-.88,1.26-1.3-.09-1.6-.21-3.19-.35-4.79L102,51a23.81,23.81,0,0,0-12.62,7.08c.23.91.46,1.82.7,2.75C95.06,59.35,99.83,57.92,104.58,56.4Z" style="fill:url(#Degradado_sin_nombre_7-7)"/><path d="M51.49,165.52a18.28,18.28,0,0,1-.84-1.72A18.28,18.28,0,0,0,51.49,165.52Z" style="fill:url(#Degradado_sin_nombre_17-4)"/><path d="M111.36,71.84c3.44-1.53,6.51-2.84,9.52-4.27a2,2,0,0,0,.92-1.41c.2-2.11.26-4.23.39-6.7L110.67,63C110.89,65.82,111.1,68.6,111.36,71.84Z" style="fill:url(#Degradado_sin_nombre_7-8)"/><path d="M50.55,163.56c-.21-.51-.4-1-.58-1.57C50.15,162.53,50.34,163.05,50.55,163.56Z" style="fill:url(#Degradado_sin_nombre_17-5)"/><path d="M76.85,129.5a3.88,3.88,0,0,0,4.62,2.78,3.8,3.8,0,1,0-1.8-7.38A3.89,3.89,0,0,0,76.85,129.5Z" style="fill:url(#Degradado_sin_nombre_13-7)"/><path d="M49.81,161.5c-.18-.63-.36-1.27-.49-1.93C49.45,160.23,49.63,160.87,49.81,161.5Z" style="fill:url(#Degradado_sin_nombre_17-6)"/><path d="M121.5,51.17c.41-.13,1-.62,1-1,.07-1.12.12-2.26.17-3.4l-13.2,2.7c.15,1.67.32,3.39.49,5.25C114.11,53.47,117.82,52.36,121.5,51.17Z" style="fill:url(#Degradado_sin_nombre_7-9)"/><path d="M159.72,52.06l-1.06-.49-20.49-9.44-6.1-2.82-1,1c-.26,6.83-.56,13.65-.83,20.47-.09,2.51-.26,5-.11,7.53.2,3.2-1.29,4.94-4.11,6.1-6.56,2.68-13,5.5-19.58,8.26l-33.12,14L91,93.11c-1,1.59-1.89,3.19-2.81,4.82l-25.49,5.22.13-1.8a8.09,8.09,0,0,0-.68.46c-1.69,1.31-2.77,3-2,5.18s2.51,2.82,4.55,2.75a20.13,20.13,0,0,0,4.34-.69q29.5-7.47,59-15c2-.51,3.81-.71,5.22,1.07,2,2.53.76,5.64-2.66,6.53-8.39,2.18-16.8,4.29-25.21,6.43l-6.05,1.54c-10.16,2.59-20.32,5.21-30.5,7.75-5.54,1.38-10.56.51-14.37-4.1s-3.65-10.9.44-15.75c1.3-1.53,1.45-2.6.44-4.28Q51.18,86.3,47,79.34l-2,27.41h0c0,.21,0,.43,0,.64A13.62,13.62,0,0,0,61.37,121.2h0l.12,0,12.27-2.51.22,0a11.73,11.73,0,0,1,3.5-1.58,12,12,0,1,1,6.08,23.15A12,12,0,0,1,74,118.63l-.19,0c-5.7,1.17-11,7.07-12,13.18-.78,5.23,1.95,8.91,6.32,9.14a296.37,296.37,0,0,0-9.77,31.91,20.57,20.57,0,0,1-3.08-2.43,20.92,20.92,0,0,0,29.6-.58l34.93-36.29,3.41-3.54a12.33,12.33,0,0,1-13.55-8.93,12.15,12.15,0,0,1,8.69-14.48,11.88,11.88,0,0,1,14.49,8.56,12.06,12.06,0,0,1,.3,4.53l7.08-7.36h0L166,85.56A20.92,20.92,0,0,0,159.72,52.06Z" style="fill:url(#Degradado_sin_nombre_13-16)"/><path d="M120.32,114.57a3.86,3.86,0,0,0-2.69,4.66,3.83,3.83,0,1,0,2.69-4.66Z" style="fill:url(#Degradado_sin_nombre_13-17)"/><polygon points="23.47 33.24 24.07 36.17 24.08 36.23 24.08 36.23 23.47 33.24" style="fill:url(#Degradado_sin_nombre_17-7)"/><path d="M30.84,52.2l-2-3.36A9.39,9.39,0,0,0,26,45.76l1.46,7.12L49.32,159.57,27.49,52.88Z" style="fill:#ffed00"/><path d="M72.84,12,51.06,2A21.19,21.19,0,0,0,43.73.05,21.19,21.19,0,0,1,51.06,2Z" style="fill:url(#Degradado_sin_nombre_17-8)"/><path d="M52.68,167.43l-.12-.17Z" style="opacity:0.54;mix-blend-mode:overlay;fill:url(#Degradado_sin_nombre_25)"/><path d="M51.66,165.81l-.17-.29Z" style="opacity:0.54;mix-blend-mode:overlay;fill:url(#Degradado_sin_nombre_25-2)"/><path d="M50,162c0-.17-.11-.33-.16-.49C49.86,161.66,49.92,161.82,50,162Z" style="opacity:0.54;mix-blend-mode:overlay;fill:url(#Degradado_sin_nombre_25-3)"/><path d="M21.81,25.15a20.6,20.6,0,0,1,4.51-17.7,20.6,20.6,0,0,0-4.51,17.7l1.66,8.09-1-4.92Z" style="opacity:0.54;mix-blend-mode:overlay;fill:url(#Degradado_sin_nombre_25-4)"/><path d="M27.25,6.43a21.43,21.43,0,0,1,6.81-4.71A21.43,21.43,0,0,0,27.25,6.43Z" style="opacity:0.54;mix-blend-mode:overlay;fill:url(#Degradado_sin_nombre_25-5)"/><path d="M34.06,1.72A20.6,20.6,0,0,1,39.44.2,20.6,20.6,0,0,0,34.06,1.72Z" style="opacity:0.54;mix-blend-mode:overlay;fill:url(#Degradado_sin_nombre_25-6)"/><path d="M50.65,163.8c0-.08-.06-.16-.1-.24C50.59,163.64,50.61,163.72,50.65,163.8Z" style="opacity:0.54;mix-blend-mode:overlay;fill:url(#Degradado_sin_nombre_25-7)"/><path d="M43.73.05A20.42,20.42,0,0,0,39.44.2,20.42,20.42,0,0,1,43.73.05Z" style="opacity:0.54;mix-blend-mode:overlay;fill:url(#Degradado_sin_nombre_25-8)"/><polygon points="132.07 39.31 132.07 39.31 131.13 38.88 131.13 38.88 132.07 39.31" style="opacity:0.54;mix-blend-mode:overlay;fill:url(#Degradado_sin_nombre_25-9)"/><path d="M55.28,170.46l-.06-.06Z" style="opacity:0.54;mix-blend-mode:overlay;fill:url(#Degradado_sin_nombre_25-10)"/><polygon points="118.22 32.93 72.84 12.01 118.22 32.93 118.22 32.93" style="opacity:0.54;mix-blend-mode:overlay;fill:url(#Degradado_sin_nombre_25-11)"/><path d="M43.72,52l5.39-1.38.15-2.15-10,2C40.23,52.16,41.45,52.55,43.72,52Z" style="fill:url(#Degradado_sin_nombre_17-9)"/><path d="M43.72,52l5.39-1.38.15-2.15-10,2C40.23,52.16,41.45,52.55,43.72,52Z" style="opacity:0.54;mix-blend-mode:overlay;fill:url(#Degradado_sin_nombre_25-12)"/><path d="M70.11,67,86,62.14c-1-4.11-2-7.91-3-11.78L66.17,54.63l-.22,3C67.34,60.78,68.71,63.85,70.11,67Z" style="fill:url(#Degradado_sin_nombre_17-10)"/><path d="M70.11,67,86,62.14c-1-4.11-2-7.91-3-11.78L66.17,54.63l-.22,3C67.34,60.78,68.71,63.85,70.11,67Z" style="fill:url(#Degradado_sin_nombre_7-10)"/><path d="M66.19,68.23c-.29-.67-.58-1.31-.86-2l-.17,2.28Z" style="fill:url(#Degradado_sin_nombre_17-11)"/><path d="M66.19,68.23c-.29-.67-.58-1.31-.86-2l-.17,2.28Z" style="opacity:0.54;mix-blend-mode:overlay;fill:url(#Degradado_sin_nombre_25-13)"/><path d="M62.8,101.35l-.13,1.8,25.49-5.22C89.08,96.3,90,94.7,91,93.11L73.32,96.72l-9,3.78A10.73,10.73,0,0,0,62.8,101.35Z" style="fill:url(#Degradado_sin_nombre_7-11)"/><path d="M62.8,101.35l-.13,1.8,25.49-5.22C89.08,96.3,90,94.7,91,93.11L73.32,96.72l-9,3.78A10.73,10.73,0,0,0,62.8,101.35Z" style="fill:#ffed00;opacity:0.54;mix-blend-mode:overlay"/><path d="M64.92,80.65,71,79.4l-1.66-3.76-4.84,1.58-.26,3.58Z" style="fill:url(#Degradado_sin_nombre_17-12)"/><path d="M64.92,80.65,71,79.4l-1.66-3.76-4.84,1.58-.26,3.58Z" style="fill:url(#Degradado_sin_nombre_7-12)"/><path d="M68.13,141c-4.37-.23-7.1-3.91-6.32-9.14.91-6.11,6.25-12,12-13.18l-12.27,2.51-.12,0h0A13.62,13.62,0,0,1,45,107.39c0-.21,0-.43,0-.64h0l2-27.41L30.84,52.2l-3.35.68L49.32,159.57c.13.66.31,1.3.49,1.93,0,.16.11.32.16.49.18.54.37,1.06.58,1.57,0,.08.06.16.1.24a18.28,18.28,0,0,0,.84,1.72l.17.29c.28.5.58,1,.9,1.45l.12.17a20.72,20.72,0,0,0,2.54,3l.06.06a20.57,20.57,0,0,0,3.08,2.43A296.37,296.37,0,0,1,68.13,141Z" style="fill:url(#Degradado_sin_nombre_17-13)"/><path d="M68.13,141c-4.37-.23-7.1-3.91-6.32-9.14.91-6.11,6.25-12,12-13.18l-12.27,2.51-.12,0h0A13.62,13.62,0,0,1,45,107.39c0-.21,0-.43,0-.64h0l2-27.41L30.84,52.2l-3.35.68L49.32,159.57c.13.66.31,1.3.49,1.93,0,.16.11.32.16.49.18.54.37,1.06.58,1.57,0,.08.06.16.1.24a18.28,18.28,0,0,0,.84,1.72l.17.29c.28.5.58,1,.9,1.45l.12.17a20.72,20.72,0,0,0,2.54,3l.06.06a20.57,20.57,0,0,0,3.08,2.43A296.37,296.37,0,0,1,68.13,141Z" style="fill:#ffed00"/><path d="M122.93,40c-4.5,1.15-8.53,2.11-12.51,3.25A2.28,2.28,0,0,0,109.15,45c.06,1.48.18,3,.32,4.46l13.2-2.7C122.77,44.61,122.84,42.39,122.93,40Z" style="fill:url(#Degradado_sin_nombre_17-14)"/><path d="M122.93,40c-4.5,1.15-8.53,2.11-12.51,3.25A2.28,2.28,0,0,0,109.15,45c.06,1.48.18,3,.32,4.46l13.2-2.7C122.77,44.61,122.84,42.39,122.93,40Z" style="opacity:0.54;mix-blend-mode:overlay;fill:url(#Degradado_sin_nombre_25-14)"/><path d="M74,118.62l-.22,0,.19,0Z" style="fill:url(#Degradado_sin_nombre_17-15)"/><path d="M74,118.62l-.22,0,.19,0Z" style="opacity:0.54;mix-blend-mode:overlay;fill:url(#Degradado_sin_nombre_25-15)"/><path d="M102,51l3.49-.72c-.15-1.82-.33-3.65-.49-5.52L87.14,49.34c.75,2.95,1.48,5.79,2.24,8.77A23.81,23.81,0,0,1,102,51Z" style="fill:url(#Degradado_sin_nombre_17-16)"/><path d="M102,51l3.49-.72c-.15-1.82-.33-3.65-.49-5.52L87.14,49.34c.75,2.95,1.48,5.79,2.24,8.77A23.81,23.81,0,0,1,102,51Z" style="fill:url(#Degradado_sin_nombre_13-18)"/><path d="M25.05,36.33a23.48,23.48,0,0,1,5.43-1.84l20-4.09.11,0h0A13.61,13.61,0,0,1,66.9,44.19c0,.21,0,.42,0,.63h0L66.79,46q25.71-6.59,51.43-13.1L72.84,12,51.06,2A21.19,21.19,0,0,0,43.73.05a20.61,20.61,0,0,0-9.67,1.67,21.43,21.43,0,0,0-6.81,4.71q-.48.5-.93,1a20.6,20.6,0,0,0-4.51,17.7l.65,3.17,1,4.92.61,3Z" style="fill:url(#Degradado_sin_nombre_17-17)"/><path d="M25.05,36.33a23.48,23.48,0,0,1,5.43-1.84l20-4.09.11,0h0A13.61,13.61,0,0,1,66.9,44.19c0,.21,0,.42,0,.63h0L66.79,46q25.71-6.59,51.43-13.1L72.84,12,51.06,2A21.19,21.19,0,0,0,43.73.05a20.61,20.61,0,0,0-9.67,1.67,21.43,21.43,0,0,0-6.81,4.71q-.48.5-.93,1a20.6,20.6,0,0,0-4.51,17.7l.65,3.17,1,4.92.61,3Z" style="fill:url(#Degradado_sin_nombre_13-19)"/><path d="M102.28,73a13.74,13.74,0,0,1,2-.26c.9-1.26,1.81-2.49,2.72-3.73l-.09-1.21L92.63,70.73c.35,1.36.69,2.7,1,4Z" style="fill:url(#Degradado_sin_nombre_17-18)"/><path d="M102.28,73a13.74,13.74,0,0,1,2-.26c.9-1.26,1.81-2.49,2.72-3.73l-.09-1.21L92.63,70.73c.35,1.36.69,2.7,1,4Z" style="fill:url(#Degradado_sin_nombre_7-13)"/><path d="M88.54,71.57,83,72.71c0-.4.09-.8.13-1.19l-9.73,3c.61,1.4,1.2,2.75,1.77,4.08l14.42-3C89.24,74.29,88.9,73,88.54,71.57Z" style="fill:url(#Degradado_sin_nombre_17-19)"/><path d="M88.54,71.57,83,72.71c0-.4.09-.8.13-1.19l-9.73,3c.61,1.4,1.2,2.75,1.77,4.08l14.42-3C89.24,74.29,88.9,73,88.54,71.57Z" style="fill:url(#Degradado_sin_nombre_7-14)"/><path d="M131.07,40.36l1-1-.94-.43Z" style="fill:url(#Degradado_sin_nombre_17-20)"/><path d="M131.07,40.36l1-1-.94-.43Z" style="opacity:0.54;mix-blend-mode:overlay;fill:url(#Degradado_sin_nombre_25-16)"/><path d="M45,60q1.54,2.61,3,5.11l.43-6Z" style="fill:url(#Degradado_sin_nombre_17-21)"/><path d="M45,60q1.54,2.61,3,5.11l.43-6Z" style="opacity:0.54;mix-blend-mode:overlay;fill:url(#Degradado_sin_nombre_25-17)"/><path d="M24.08,36.23a15.25,15.25,0,0,0-3.82.24C14.81,37.46,9.45,39,4.07,40.3,1,41.07-.45,43,.12,45.39s2.85,3.53,6,2.73C10.45,47,14.7,45.82,19,44.89c2.9-.62,5.18-.34,7,.87l-1.85-9Z" style="fill:url(#Degradado_sin_nombre_13-20)"/><polygon points="24.08 36.23 24.08 36.23 24.18 36.75 24.08 36.23" style="fill:#e7363d"/></g></g></g></svg>