<svg xmlns="http://www.w3.org/2000/svg" xmlns:xlink="http://www.w3.org/1999/xlink" viewBox="0 0 387.7 106.17"><defs><style>.cls-1{fill:#706f6f;}.cls-2{fill:url(#Degradado_sin_nombre_13);}.cls-3{fill:url(#Degradado_sin_nombre_13-2);}.cls-4{fill:url(#Degradado_sin_nombre_13-3);}.cls-5{fill:url(#Degradado_sin_nombre_13-4);}.cls-6{fill:url(#Degradado_sin_nombre_13-5);}.cls-7{fill:url(#Degradado_sin_nombre_13-6);}.cls-8{fill:url(#Degradado_sin_nombre_13-7);}.cls-9{fill:none;}.cls-10{fill:url(#Degradado_sin_nombre_13-8);}</style><linearGradient id="Degradado_sin_nombre_13" x1="27.19" y1="46.13" x2="27.19" y2="106.17" gradientUnits="userSpaceOnUse"><stop offset="0" stop-color="#fcea10"/><stop offset="1" stop-color="#f9b233"/></linearGradient><linearGradient id="Degradado_sin_nombre_13-2" x1="86.61" y1="46.13" x2="86.61" y2="106.17" xlink:href="#Degradado_sin_nombre_13"/><linearGradient id="Degradado_sin_nombre_13-3" x1="147.48" y1="46.7" x2="147.48" y2="105.64" xlink:href="#Degradado_sin_nombre_13"/><linearGradient id="Degradado_sin_nombre_13-4" x1="200.62" y1="46.7" x2="200.62" y2="105.64" xlink:href="#Degradado_sin_nombre_13"/><linearGradient id="Degradado_sin_nombre_13-5" x1="240.59" y1="46.7" x2="240.59" y2="105.64" xlink:href="#Degradado_sin_nombre_13"/><linearGradient id="Degradado_sin_nombre_13-6" x1="275.28" y1="46.7" x2="275.28" y2="105.64" xlink:href="#Degradado_sin_nombre_13"/><linearGradient id="Degradado_sin_nombre_13-7" x1="314.68" y1="46.7" x2="314.68" y2="105.64" xlink:href="#Degradado_sin_nombre_13"/><linearGradient id="Degradado_sin_nombre_13-8" x1="357.43" y1="46.13" x2="357.43" y2="106.17" xlink:href="#Degradado_sin_nombre_13"/></defs><g id="Capa_2" data-name="Capa 2"><g id="Capa_1-2" data-name="Capa 1"><path class="cls-1" d="M80.69,1.32,79.11,9.69A32.23,32.23,0,0,0,75.8,8.8a29.84,29.84,0,0,0-3-.5A24.28,24.28,0,0,0,70,8.14,15.29,15.29,0,0,0,64.89,9a13.49,13.49,0,0,0-4.39,2.55,11.64,11.64,0,0,0-4.06,9,9.78,9.78,0,0,0,1.18,4.82,8.56,8.56,0,0,0,3.29,3.33,9.37,9.37,0,0,0,4.66,1.19q6.56,0,13.54-4.94L77.42,35.21c-.88.36-1.88.74-3,1.15s-2.05.73-2.81,1a24.75,24.75,0,0,1-2.92.61,22.46,22.46,0,0,1-3.61.29,23.21,23.21,0,0,1-7.05-1,17.67,17.67,0,0,1-6-3.25A14.83,14.83,0,0,1,48,28.53,17.19,17.19,0,0,1,46.5,21.3a23.26,23.26,0,0,1,1.12-6.89,20.94,20.94,0,0,1,3.76-6.88,19.52,19.52,0,0,1,7.37-5.41A28.2,28.2,0,0,1,70.3,0a33.8,33.8,0,0,1,4.89.31C76.6.51,78.44.85,80.69,1.32Z"/><path class="cls-1" d="M119.51,17A23.27,23.27,0,0,1,118,25.41a19.67,19.67,0,0,1-4.34,6.75,19.88,19.88,0,0,1-6.79,4.47,24.22,24.22,0,0,1-17.55-.11A15.67,15.67,0,0,1,82.26,31a16,16,0,0,1-2.79-9.7,22.46,22.46,0,0,1,1.77-9.13A19,19,0,0,1,86.1,5.42a21,21,0,0,1,7-4.06A24.87,24.87,0,0,1,101.35,0a20.84,20.84,0,0,1,9.31,2.05A15.47,15.47,0,0,1,117.16,8,17,17,0,0,1,119.51,17Zm-10,.64a10.25,10.25,0,0,0-1.11-4.88,8,8,0,0,0-3-3.25,8.66,8.66,0,0,0-4.5-1.16,10.22,10.22,0,0,0-6.19,1.9,12,12,0,0,0-4,4.78,13.58,13.58,0,0,0-1.35,5.81,9.27,9.27,0,0,0,2.35,6.39,8.2,8.2,0,0,0,6.46,2.63,10.62,10.62,0,0,0,8.31-3.74,11.83,11.83,0,0,0,2.27-3.95A13.89,13.89,0,0,0,109.55,17.64Z"/><path class="cls-1" d="M169.93,37.73H160.8l-1.05-23.82L146.83,37.73h-5.72L135,13.16l-8.08,24.57h-9.37L129.78.51h10l5.88,23.63L158.43.51h9.75Z"/><path class="cls-1" d="M202.33.51l-.94,6.63H186.32l-1.15,8.09h13.07l-.94,6.66H184.12l-1.26,9.18h18.31l-.94,6.66h-27.9L177.73.51Z"/><path class="cls-1" d="M236.58,37.73h-10.4L222.48,30a38.64,38.64,0,0,0-2.85-5.28,6.18,6.18,0,0,0-2.12-2.17,5.91,5.91,0,0,0-2.44-.42h-1.43l-2.36,15.63h-9.43L207.25.51h14.53Q229.7.51,232.54,4a11.79,11.79,0,0,1,2.83,7.55A9,9,0,0,1,233,18.19a11,11,0,0,1-6.57,2.95,10,10,0,0,1,3.32,2.9,34,34,0,0,1,2.78,5.18ZM225.41,11.28a5.19,5.19,0,0,0-1.58-3.75q-1.56-1.59-6.35-1.59H216l-1.56,10.74h3.76q4,0,5.58-1.68A5.25,5.25,0,0,0,225.41,11.28Z"/><path class="cls-1" d="M270.83,1.32l-1.58,8.37a32.23,32.23,0,0,0-3.31-.89c-1.06-.23-2.07-.39-3-.5a24.28,24.28,0,0,0-2.74-.16A15.35,15.35,0,0,0,255,9a13.59,13.59,0,0,0-4.39,2.55,11.68,11.68,0,0,0-4,9,9.78,9.78,0,0,0,1.18,4.82,8.5,8.5,0,0,0,3.29,3.33,9.37,9.37,0,0,0,4.66,1.19q6.55,0,13.54-4.94l-1.7,10.29c-.88.36-1.87.74-3,1.15s-2.05.73-2.82,1a24.11,24.11,0,0,1-2.91.61,22.55,22.55,0,0,1-3.61.29,23.21,23.21,0,0,1-7-1,17.58,17.58,0,0,1-6-3.25,15,15,0,0,1-4.11-5.39,17.35,17.35,0,0,1-1.45-7.23,22.94,22.94,0,0,1,1.12-6.89,20.76,20.76,0,0,1,3.76-6.88,19.52,19.52,0,0,1,7.37-5.41A28.2,28.2,0,0,1,260.44,0a33.56,33.56,0,0,1,4.88.31C266.74.51,268.57.85,270.83,1.32Z"/><path class="cls-1" d="M283.68.51l-5.56,37.22h-9.54L274.09.51Z"/><path class="cls-1" d="M315.24,37.73h-9.91l-1-8.24H293l-3.76,8.24H279.5L298.35.51h10.07ZM303.69,24.25,301.92,10l-6.47,14.23Z"/><path class="cls-1" d="M343.4,31.07l-1,6.66H315.9L321.3.51h9.58l-4.46,30.56Z"/><path class="cls-2" d="M53.05,72.57V98.19a22.42,22.42,0,0,1-5,4,27.05,27.05,0,0,1-5.62,2.43,33.4,33.4,0,0,1-6,1.23,53,53,0,0,1-6.19.35,29.67,29.67,0,0,1-8-1.07A30.33,30.33,0,0,1,8.86,97.39a29.11,29.11,0,0,1-4.73-6.06,30.94,30.94,0,0,1-3-7.18,29.9,29.9,0,0,1,0-16,30.87,30.87,0,0,1,3-7.17,28.91,28.91,0,0,1,4.73-6.07A31,31,0,0,1,15,50.22a30.29,30.29,0,0,1,15.24-4.09,26.52,26.52,0,0,1,6.54.82,32.57,32.57,0,0,1,6.31,2.32A35.66,35.66,0,0,1,49,53a41.18,41.18,0,0,1,5.37,4.89L51,61.39a9.05,9.05,0,0,1-11.44,1.15,19,19,0,0,0-4.38-2.16,14.78,14.78,0,0,0-4.91-.8,16.22,16.22,0,0,0-6.46,1.31,17.42,17.42,0,0,0-5.32,3.56,17,17,0,0,0-3.64,5.26,16,16,0,0,0,.06,13.06A16.64,16.64,0,0,0,18.65,88a17.7,17.7,0,0,0,5.47,3.45,17.16,17.16,0,0,0,6.52,1.26,24.85,24.85,0,0,0,4.69-.46,17.48,17.48,0,0,0,4.23-1.35V85.24A10.93,10.93,0,0,1,36,84.58a8.73,8.73,0,0,1-2.82-1.66,7.54,7.54,0,0,1-1.83-2.47,7.4,7.4,0,0,1-.66-3.15V72.57Z"/><path class="cls-3" d="M56.34,76.15a29.48,29.48,0,0,1,1.09-8A30.11,30.11,0,0,1,60.5,61a29.58,29.58,0,0,1,4.73-6.07,30.05,30.05,0,0,1,6.12-4.69,30.84,30.84,0,0,1,7.24-3,30.59,30.59,0,0,1,16,0,30.67,30.67,0,0,1,7.24,3A30.22,30.22,0,0,1,112.73,61a29.69,29.69,0,0,1,3.06,7.17,29.9,29.9,0,0,1,0,16,29.76,29.76,0,0,1-3.06,7.18A30.15,30.15,0,0,1,108,97.39a29.76,29.76,0,0,1-6.13,4.69,30.67,30.67,0,0,1-7.24,3,30.67,30.67,0,0,1-16.06,0,30.87,30.87,0,0,1-7.22-3A30.37,30.37,0,0,1,60.5,91.33a30.19,30.19,0,0,1-3.07-7.18A29.43,29.43,0,0,1,56.34,76.15Zm13.45,0a15.63,15.63,0,0,0,1.36,6.44,17.12,17.12,0,0,0,9,8.84,16.63,16.63,0,0,0,12.89,0,17.07,17.07,0,0,0,5.37-3.56,17.47,17.47,0,0,0,3.66-5.28,16,16,0,0,0,0-12.88,17.25,17.25,0,0,0-3.66-5.26,17.78,17.78,0,0,0-5.37-3.56,16.51,16.51,0,0,0-12.89,0,17.68,17.68,0,0,0-5.35,3.56,16.91,16.91,0,0,0-3.66,5.26A15.66,15.66,0,0,0,69.79,76.15Z"/><path class="cls-4" d="M135.88,105.64H122.43V46.7h23.12a20.7,20.7,0,0,1,11.25,3.19,19.15,19.15,0,0,1,4,3.46,21.27,21.27,0,0,1,2.92,4.27,22.06,22.06,0,0,1,1.77,4.71,20.48,20.48,0,0,1,.59,4.81,21.69,21.69,0,0,1-.51,4.67,19.86,19.86,0,0,1-4.51,8.8,23.43,23.43,0,0,1-4.27,3.81l15.71,21.22H161.05a10.88,10.88,0,0,1-1.25-.12,9,9,0,0,1-2-.58,10.72,10.72,0,0,1-2.34-1.36,10.39,10.39,0,0,1-2.34-2.51l-9.87-13.36h-7.37Zm10.37-31.46a5,5,0,0,0,2.38-.62,7.53,7.53,0,0,0,2-1.6,8.17,8.17,0,0,0,1.42-2.25,6.28,6.28,0,0,0,0-5,8,8,0,0,0-1.42-2.24,7.37,7.37,0,0,0-2-1.61,5,5,0,0,0-2.38-.62H135.88v14Z"/><path class="cls-5" d="M173.56,105.64V46.7h24.38a29.55,29.55,0,0,1,15,4,30.8,30.8,0,0,1,6,4.63,29.3,29.3,0,0,1,7.67,13,29.22,29.22,0,0,1,0,15.67,29.5,29.5,0,0,1-3,7,29.18,29.18,0,0,1-4.67,6,29.77,29.77,0,0,1-13.12,7.57,29.49,29.49,0,0,1-7.88,1Zm24.38-13.49a15.7,15.7,0,0,0,6.19-1.25,17.22,17.22,0,0,0,5.19-3.42,16.15,16.15,0,0,0,3.55-5.08,15.27,15.27,0,0,0,0-12.42,16.58,16.58,0,0,0-3.55-5.1,17.06,17.06,0,0,0-5.19-3.43,15.54,15.54,0,0,0-6.19-1.26H187v32Z"/><path class="cls-6" d="M247.34,105.64H233.85V46.7h13.49Z"/><path class="cls-7" d="M256.92,105.64V46.7h13.45V93.05h23.28v12.59Z"/><path class="cls-8" d="M296.32,105.64V46.7h13.45V93.05H333v12.59Z"/><path class="cls-9" d="M367,62.61a18.24,18.24,0,0,0-3.1-1.72,16.51,16.51,0,0,0-12.89,0,17.68,17.68,0,0,0-5.35,3.56A16.91,16.91,0,0,0,342,69.71a15.93,15.93,0,0,0,0,12.88,17.12,17.12,0,0,0,9,8.84,16.63,16.63,0,0,0,12.89,0,17.07,17.07,0,0,0,5.37-3.56,17.47,17.47,0,0,0,3.66-5.28,16,16,0,0,0,0-12.88,17.25,17.25,0,0,0-3.66-5.26,18.14,18.14,0,0,0-1.49-1.27l-1.56.89Z"/><path class="cls-10" d="M386.61,68.15a29.91,29.91,0,0,0-6.57-12l-12.29,7a18.14,18.14,0,0,1,1.49,1.27,17.25,17.25,0,0,1,3.66,5.26,16,16,0,0,1,0,12.88,17.47,17.47,0,0,1-3.66,5.28,17.07,17.07,0,0,1-5.37,3.56,16.63,16.63,0,0,1-12.89,0,17.12,17.12,0,0,1-9-8.84,15.93,15.93,0,0,1,0-12.88,16.91,16.91,0,0,1,3.66-5.26A17.68,17.68,0,0,1,351,60.89a16.51,16.51,0,0,1,12.89,0,18.24,18.24,0,0,1,3.1,1.72l6.41-12-.69-.43a30.67,30.67,0,0,0-7.24-3,30.59,30.59,0,0,0-16,0,30.67,30.67,0,0,0-7.24,3,30.05,30.05,0,0,0-6.12,4.69A29.58,29.58,0,0,0,331.32,61a30.11,30.11,0,0,0-3.07,7.17,29.9,29.9,0,0,0,0,16,30.19,30.19,0,0,0,3.07,7.18,30.37,30.37,0,0,0,10.85,10.75,30.87,30.87,0,0,0,7.22,3,30.67,30.67,0,0,0,16.06,0,30.67,30.67,0,0,0,7.24-3,29.76,29.76,0,0,0,6.13-4.69,29.89,29.89,0,0,0,7.79-13.24,29.9,29.9,0,0,0,0-16Z"/></g></g></svg>